<svg width="128" height="128" viewBox="0 0 128 128" fill="none" xmlns="http://www.w3.org/2000/svg">
<path d="M91.5122 36.4999C89.4324 34.4195 88.2147 31.6306 88.1025 28.691C87.9903 25.7514 88.992 22.8778 90.9072 20.6449C91.0656 20.4592 91.1479 20.2205 91.1377 19.9766C91.1275 19.7328 91.0255 19.5018 90.8522 19.3299L79.8197 8.28492C79.6373 8.10264 79.39 8.00024 79.1322 8.00024C78.8743 8.00024 78.627 8.10264 78.4447 8.28492L60.8597 25.8699C60.2107 26.5185 59.7219 27.3094 59.4322 28.1799C59.1433 29.0524 58.6552 29.8455 58.0064 30.4964C57.3577 31.1474 56.5662 31.6382 55.6947 31.9299C54.8237 32.2202 54.032 32.7088 53.3822 33.3574L8.28468 78.4449C8.1024 78.6273 8 78.8746 8 79.1324C8 79.3903 8.1024 79.6376 8.28468 79.8199L19.3172 90.8524C19.489 91.0258 19.72 91.1278 19.9639 91.138C20.2078 91.1482 20.4465 91.0658 20.6322 90.9074C22.8646 88.9902 25.7388 87.9869 28.6794 88.0984C31.62 88.2099 34.41 89.428 36.4908 91.5088C38.5716 93.5896 39.7897 96.3796 39.9012 99.3202C40.0127 102.261 39.0094 105.135 37.0922 107.367C36.9338 107.553 36.8514 107.792 36.8616 108.036C36.8718 108.28 36.9738 108.511 37.1472 108.682L48.1797 119.715C48.362 119.897 48.6093 120 48.8672 120C49.125 120 49.3723 119.897 49.5547 119.715L94.6547 74.6174C95.3032 73.9676 95.7919 73.1759 96.0822 72.3049C96.371 71.4325 96.8592 70.6393 97.5079 69.9884C98.1567 69.3375 98.9482 68.8467 99.8197 68.5549C100.69 68.2652 101.481 67.7764 102.13 67.1274L119.715 49.5424C119.897 49.3601 119.999 49.1128 119.999 48.8549C119.999 48.5971 119.897 48.3498 119.715 48.1674L108.682 37.1349C108.51 36.9616 108.279 36.8596 108.035 36.8494C107.792 36.8392 107.553 36.9215 107.367 37.0799C105.137 38.9984 102.266 40.0044 99.326 39.8968C96.3865 39.7893 93.5959 38.5761 91.5122 36.4999Z" stroke="white" stroke-width="8" stroke-miterlimit="10"/>
<path d="M62.6255 35.1102L58.498 30.9827M73.6305 46.1152L70.878 43.3652M84.6355 57.1227L81.8855 54.3702M97.018 69.5027L92.8905 65.3752" stroke="white" stroke-width="8" stroke-miterlimit="10" stroke-linecap="round"/>
</svg>
