<svg width="273" height="274" viewBox="0 0 273 274" fill="none" xmlns="http://www.w3.org/2000/svg">
<path d="M195.178 78.3476C190.743 73.9103 188.145 67.9622 187.906 61.6926C187.667 55.423 189.803 49.2942 193.888 44.5318C194.226 44.1358 194.401 43.6266 194.38 43.1065C194.358 42.5864 194.14 42.0937 193.771 41.7272L170.24 18.1703C169.851 17.7815 169.324 17.5631 168.774 17.5631C168.224 17.5631 167.697 17.7815 167.308 18.1703L129.802 55.6758C128.418 57.059 127.376 58.7459 126.758 60.6026C126.142 62.4633 125.1 64.155 123.717 65.5433C122.333 66.9316 120.645 67.9784 118.786 68.6006C116.929 69.2196 115.24 70.2619 113.854 71.6452L17.6697 167.808C17.2809 168.197 17.0625 168.725 17.0625 169.275C17.0625 169.825 17.2809 170.352 17.6697 170.741L41.1999 194.271C41.5664 194.641 42.0591 194.859 42.5792 194.88C43.0994 194.902 43.6085 194.726 44.0046 194.389C48.7659 190.299 54.8961 188.16 61.1678 188.397C67.4396 188.635 73.39 191.233 77.828 195.671C82.266 200.109 84.864 206.06 85.1018 212.331C85.3396 218.603 83.1998 224.733 79.1107 229.495C78.7728 229.891 78.5972 230.4 78.6189 230.92C78.6407 231.44 78.8582 231.933 79.228 232.299L102.758 255.83C103.147 256.218 103.675 256.437 104.225 256.437C104.774 256.437 105.302 256.218 105.691 255.83L201.881 159.645C203.264 158.259 204.306 156.571 204.925 154.713C205.541 152.852 206.582 151.161 207.966 149.772C209.35 148.384 211.038 147.337 212.897 146.715C214.753 146.097 216.44 145.054 217.823 143.67L255.329 106.165C255.718 105.776 255.936 105.248 255.936 104.698C255.936 104.149 255.718 103.621 255.329 103.232L231.799 79.7019C231.432 79.3322 230.94 79.1146 230.419 79.0929C229.899 79.0711 229.39 79.2468 228.994 79.5846C224.238 83.6763 218.113 85.8219 211.844 85.5926C205.574 85.3632 199.622 82.7758 195.178 78.3476Z" stroke="white" stroke-width="8" stroke-miterlimit="10"/>
<path d="M133.568 75.3834L124.765 66.5802M157.04 98.855L151.169 92.9898M180.512 122.332L174.646 116.461M206.921 148.736L198.118 139.933" stroke="white" stroke-width="8" stroke-miterlimit="10" stroke-linecap="round"/>
<g clip-path="url(#clip0_226_9704)">
<path d="M147.813 140.939L154.283 147.665C154.712 148.111 154.947 148.709 154.935 149.328C154.923 149.947 154.665 150.535 154.22 150.964L127.315 176.847C126.869 177.276 126.271 177.511 125.652 177.499C125.034 177.487 124.445 177.229 124.016 176.783L94.8975 146.516C94.4684 146.07 94.2341 145.472 94.2461 144.853C94.2581 144.235 94.5153 143.646 94.9613 143.217L121.866 117.334C122.312 116.905 122.91 116.67 123.528 116.682C124.147 116.694 124.736 116.952 125.165 117.398L131.636 124.124L134.999 120.888L138.234 124.251L134.871 127.487L144.577 137.576L147.94 134.34L151.176 137.703L147.813 140.939ZM141.214 140.811L131.508 130.722L128.145 133.958L124.91 130.594L128.273 127.359L123.419 122.315L116.693 128.785L142.577 155.69L149.303 149.219L144.45 144.174L141.086 147.41L137.851 144.047L141.214 140.811ZM139.213 158.925L113.33 132.021L99.8782 144.962L125.761 171.867L139.213 158.925Z" fill="#E87B22"/>
</g>
<defs>
<clipPath id="clip0_226_9704">
<rect width="56" height="56" fill="white" transform="translate(125.356 107.5) rotate(46.1082)"/>
</clipPath>
</defs>
</svg>
